<svg width="555" height="560" viewBox="0 0 555 560" fill="none" xmlns="http://www.w3.org/2000/svg">
<rect width="554.798" height="559.718" rx="277.399" fill="white"/>
<g clip-path="url(#clip0_361_1370)">
<path d="M186.602 75.0882C179.987 76.7602 169.242 85.8581 162.111 95.8165C158.3 101.152 154.735 107.963 152.546 114.086C150.85 118.856 149.129 126.208 148.243 132.528C147.678 136.437 147.604 151.608 148.12 155.518C149.03 162.354 150.26 168.329 151.907 173.837C152.694 176.492 156.087 186.057 156.997 188.172C157.636 189.647 157.636 190.09 157.022 193.016C156.407 195.893 155.792 200.934 155.792 203.147V204.794L148.735 204.868C141.654 204.941 141.654 204.941 140.326 205.679C137.916 207.007 136.883 209.441 137.473 212.318C137.916 214.433 138.236 214.925 141.924 219.129C143.645 221.072 145.711 223.506 146.547 224.588C149.915 228.916 152.448 232.038 153.333 232.973L154.268 233.956L154.366 240.767L154.464 247.578L153.456 248.119C151.169 249.398 148.809 251.218 146.842 253.283C145.686 254.488 144.727 255.545 144.727 255.644C144.727 255.717 144.334 256.332 143.867 256.996C142.908 258.324 140.99 261.987 140.4 263.635C139.072 267.323 138.457 271.626 138.678 275.634C139.047 281.929 140.842 287.142 144.358 292.256L145.686 294.174L144.727 294.986C143.498 296.043 141.555 298.502 140.596 300.223C138.064 304.747 136.539 312.247 137.08 317.288C137.892 324.468 140.252 330.27 144.235 334.893L145.391 336.246L144.186 337.598C142.539 339.418 141.211 341.729 140.424 344.114C139.785 346.056 139.76 346.229 139.637 354.318C139.588 358.843 139.613 364.547 139.76 366.982C139.982 371.383 139.982 371.408 140.867 373.178C141.359 374.137 142.367 375.563 143.08 376.374L144.432 377.801L143.178 379.153C141.678 380.8 140.424 383.333 139.908 385.792C139.588 387.316 139.539 389.038 139.613 395.505C139.711 403.176 139.736 403.422 140.326 404.971C141.506 408.069 143.867 410.897 146.104 411.881C146.694 412.151 147.186 412.446 147.186 412.545C147.186 412.643 146.67 412.913 146.055 413.184C144.481 413.823 142.367 415.839 141.555 417.487C139.908 420.782 139.932 420.511 139.932 432.265C139.932 442.961 139.932 442.961 140.621 444.362C141.481 446.133 143.252 448.124 144.58 448.788C145.957 449.526 148.391 449.526 149.792 448.813C151.169 448.075 152.448 446.6 153.063 444.953C153.579 443.551 153.579 443.551 153.579 395.48C153.579 343.917 153.53 346.007 154.735 343.622C155.989 341.139 158.644 338.778 161.939 337.18C163.562 336.393 163.882 336.147 163.98 335.557C164.152 334.229 163.513 333.615 160.956 332.68C158.177 331.672 154.636 328.328 152.719 324.935C151.465 322.722 150.432 319.279 150.186 316.575C150.088 315.173 150.088 314.239 150.21 314.239C150.333 314.239 150.383 313.845 150.309 313.378C149.965 311.288 151.219 306.887 153.038 303.813C155.153 300.248 157.71 297.912 161.669 295.92C164.275 294.617 164.644 294.15 164.054 292.748C163.734 292.01 163.415 291.74 162.038 291.101C157.44 289.06 154.317 285.494 152.522 280.355C151.833 278.388 151.76 277.946 151.76 274.774C151.735 271.774 151.809 271.11 152.325 269.61C153.014 267.545 153.997 265.725 155.571 263.586C157.071 261.545 157.956 260.684 158.103 261.151C158.153 261.348 158.669 262.774 159.235 264.323C162.579 273.421 167.57 280.798 174.185 286.478C182.864 293.879 191.052 297.887 201.404 299.756C204.06 300.248 205.388 300.321 209.396 300.321C218.789 300.297 225.01 298.969 233.025 295.281C234.845 294.445 236.714 293.633 237.181 293.461C238.042 293.141 238.042 293.141 238.312 290.83C238.927 285.396 241.927 279.814 246.156 276.298C249.205 273.79 253.36 271.675 257.024 270.79C259.483 270.225 259.778 270.077 260.196 269.167C260.54 268.43 260.54 268.282 260.196 267.495C259.975 267.028 259.68 266.487 259.532 266.29C259.311 265.971 259.483 265.209 260.245 262.725C262.212 256.48 264.475 247.873 264.475 246.669C264.475 246.3 265.015 245.513 266.024 244.48C267.253 243.177 268.015 242.661 270.007 241.702C274.384 239.587 277.236 239.44 281.687 241.112C285.08 242.39 288.35 244.898 288.793 246.57C288.94 247.087 289.334 248.636 289.678 250.062C290.563 253.554 292.629 260.979 293.489 263.733C294.202 265.995 294.202 265.995 293.735 266.979C292.653 269.217 293.342 270.176 296.489 270.913C297.645 271.184 299.169 271.651 299.858 271.946C300.915 272.413 301.21 272.708 301.849 273.888C303.079 276.126 303.399 277.798 303.251 281.044C303.128 283.527 302.194 288.42 301.727 288.863C301.653 288.937 301.186 288.863 300.645 288.715C299.169 288.248 292.53 288.322 291.104 288.814C288.817 289.576 286.604 291.346 281.736 296.215L277.015 300.985L272.392 296.608C266.933 291.396 265.606 290.314 263.491 289.33C262.016 288.617 261.696 288.568 258.45 288.47C255.77 288.396 254.664 288.47 253.434 288.789C250.115 289.65 247.656 291.469 246.377 294.002C245.787 295.231 245.664 295.723 245.664 297.395C245.664 299.166 245.738 299.51 246.5 300.911C247.459 302.682 249.18 304.329 250.828 305.116C252.672 305.977 254.27 306.198 257.614 306.075C260.245 305.952 260.885 305.854 261.721 305.387C262.704 304.821 262.704 304.821 263.54 305.337C265.015 306.247 269.073 310.649 270.622 313.034L272.146 315.345L272.048 322.353C271.949 329.361 271.949 329.361 271.261 331.008C268.704 337.106 263.417 339.811 254.024 339.811C249.598 339.811 247.164 339.319 244.336 337.844C241.041 336.123 238.705 333.836 237.033 330.639C236.222 329.066 236.148 328.746 236.025 326.336C235.902 323.312 235.681 322.402 234.771 321.32C233.837 320.238 232.435 319.648 230.591 319.648C226.608 319.648 224.149 322.943 224.149 328.23C224.149 332.188 225.403 336.172 227.739 339.737C230.64 344.114 236.64 348.737 242.099 350.802C246.18 352.351 252.082 352.892 258.819 352.376C264.745 351.884 269.146 350.482 274.04 347.433C275.367 346.622 276.548 345.958 276.671 345.958C276.793 345.958 278.441 346.794 280.334 347.802C282.228 348.81 284.736 350.015 285.891 350.482C288.08 351.368 291.571 352.351 292.506 352.351C292.801 352.351 292.948 352.45 292.875 352.597C292.506 353.187 285.301 357.49 283.285 358.302C282.744 358.523 281.465 359.064 280.457 359.482C275.982 361.4 265.974 365.014 263.811 365.506C262.065 365.9 262.04 365.9 260.122 365.26C258.327 364.646 257.467 364.228 253.065 361.818C251.098 360.736 250.139 360.662 248.811 361.474C247.533 362.26 246.918 363.76 247.262 365.285C248.049 368.801 251.615 373.055 256.385 376.202C260.393 378.858 263.098 379.989 267.72 380.997C269.614 381.415 269.614 381.415 271.212 383.653C272.097 384.907 274.285 387.415 276.08 389.259C282.178 395.529 288.424 399.414 296.071 401.725C301.407 403.348 304.776 403.742 313.849 403.742C317.66 403.742 320.807 403.766 320.832 403.791C320.857 403.84 320.955 408.832 321.029 414.93C321.152 425.822 321.152 426.019 321.717 427.126C322.061 427.839 322.676 428.552 323.315 428.97C324.25 429.609 324.52 429.683 326.364 429.658C328.209 429.634 328.381 429.683 328.504 430.15C328.577 430.445 329.536 431.773 330.667 433.125C334.159 437.33 335.413 438.953 337.11 441.289L338.733 443.551V453.854C338.733 462.583 338.782 464.304 339.126 465.287C339.814 467.353 341.978 468.877 344.167 468.902C345.544 468.902 348.076 467.722 348.691 466.787C349.109 466.148 349.109 466.148 360.322 466.246L371.534 466.32L372.493 467.353C373.575 468.533 374.608 468.951 376.353 468.951C380.238 468.902 389.189 462.386 393.123 456.731C395.262 453.657 397.524 448.911 398.606 445.125C398.828 444.412 399.073 443.821 399.172 443.821C399.27 443.821 399.565 444.387 399.811 445.075C400.45 446.92 402.196 448.592 404.016 449.133C407.384 450.092 410.507 448.493 412.278 444.903C413.261 442.887 413.458 440.649 413.458 430.912C413.458 422.405 413.237 420.585 411.884 417.831C410.827 415.716 409.302 414.094 407.434 413.184L406.081 412.52L407.384 411.807C410.188 410.282 412.548 407.135 413.482 403.643C413.999 401.824 414.023 401.307 413.9 394.054C413.802 385.767 413.655 384.759 412.302 382.251C411.933 381.563 410.999 380.333 410.237 379.497C409.45 378.661 408.811 377.948 408.811 377.874C408.811 377.825 409.524 377.063 410.36 376.178C411.392 375.12 412.253 373.94 412.868 372.686C413.753 370.867 413.802 370.67 414.023 367.178C414.368 361.99 414.097 347.458 413.63 345.712C412.794 342.516 411.663 340.401 409.376 337.696L408.024 336.098L409.032 335.016C413.089 330.615 416.236 321.763 416.187 314.804C416.163 307.28 413.212 299.633 408.712 295.33C408.22 294.863 407.827 294.395 407.827 294.273C407.827 294.174 408.393 293.24 409.081 292.182C412.499 286.945 414.392 281.142 414.638 275.02C414.786 271.11 414.466 268.823 413.212 265.012C412.327 262.258 410.188 258.127 408.589 255.963C406.819 253.578 403.573 250.603 400.918 248.857L398.557 247.333L398.754 245.931C399.147 243.177 399.27 239.071 399.024 236.661L398.778 234.202L400.18 232.604C400.967 231.719 402.934 229.334 404.557 227.317C407.311 223.924 409.13 221.76 413.163 217.138C415.843 214.089 416.605 211.851 415.843 209.22C415.4 207.745 414.073 206.22 412.524 205.433C411.343 204.843 407.089 204.523 401.877 204.671C398.164 204.769 397.524 204.72 397.401 204.425C397.328 204.204 397.254 203.171 397.254 202.114C397.254 199.704 396.639 194.737 396 192.131C395.508 190.139 395.508 190.139 396.418 187.828C401.262 175.238 404.36 163.583 405.147 154.805C405.565 150.404 405.565 150.109 405.589 143.838C405.589 135.527 404.827 129.011 402.909 121.586C400.426 111.922 397.696 105.849 392.016 97.2427C387.271 90.1119 380.583 83.3992 373.452 78.6781C369.813 76.2438 367.083 75.039 364.674 74.8177C361.035 74.4735 357.543 76.293 355.969 79.3666C355.06 81.1616 354.715 83.2516 354.346 89.4234C353.412 104.841 352.281 113.963 349.92 124.684C347.904 133.806 345.273 142.609 344.536 142.609C344.388 142.609 343.822 142.068 343.331 141.404C341.56 139.093 336.692 134.618 333.938 132.823C329.069 129.577 324.643 127.684 319.43 126.577C315.84 125.815 309.152 125.815 305.587 126.577C304.185 126.897 302.563 127.29 301.948 127.511C300.841 127.88 300.841 127.88 299.071 126.233C295.727 123.135 291.375 120.577 286.998 119.127C284.711 118.364 279.351 117.528 276.744 117.528C274.753 117.528 271.261 117.996 268.655 118.61C263.688 119.766 257.368 123.184 253.828 126.651C252.377 128.052 252.377 128.052 251.467 127.733C250.975 127.561 249.131 127.118 247.385 126.725C244.631 126.134 243.623 126.036 240.132 126.036C237.132 126.012 235.534 126.134 233.984 126.454C227.149 127.88 220.879 130.954 215.789 135.281C214.141 136.708 210.379 140.642 209.002 142.412C208.707 142.806 208.412 143.101 208.338 143.101C208.092 143.101 206.543 138.06 205.363 133.511C202.781 123.503 200.593 111.086 199.806 102.16C199.658 100.39 199.437 97.9557 199.314 96.7017C199.167 95.4723 199.068 93.5789 199.068 92.5216C199.068 90.2349 198.65 85.0466 198.306 82.9812C197.519 78.3093 194.126 75.1128 189.7 74.8669C188.643 74.7931 187.34 74.8915 186.602 75.0882ZM185.545 93.456C185.545 95.964 186.504 107.57 187.044 111.504C189.159 127.266 191.126 135.822 196.585 153.01C197.15 154.731 197.593 156.256 197.593 156.354C197.593 156.477 196.511 156.625 195.208 156.723C192.921 156.895 189.085 157.559 187.34 158.075C186.897 158.198 186.504 158.223 186.454 158.149C186.085 157.485 184.438 151.658 183.725 148.51C182.348 142.363 181.586 137.863 180.602 129.823C180.455 128.544 180.16 126.823 179.963 126.012C179.053 122.446 176.102 120.43 173.422 121.536C171.849 122.2 169.955 124.93 169.685 126.97C169.636 127.388 169.586 127.733 169.562 127.733C169.537 127.733 169.488 127.929 169.439 128.175C169.218 129.331 169.045 128.815 169.193 127.487C170.226 118.069 172.316 109.635 174.898 104.324C175.389 103.267 175.832 102.357 175.832 102.283C175.93 101.447 179.865 96.8984 182.938 94.0215C184.168 92.8904 185.249 91.9561 185.372 91.9561C185.471 91.9561 185.545 92.6446 185.545 93.456ZM282.055 131.446C285.154 132.282 288.326 134.298 289.875 136.413C291.153 138.158 292.186 140.322 292.383 141.748C292.629 143.445 293.12 144.281 294.104 144.748C295.112 145.24 295.776 145.019 297.719 143.543C301.186 140.937 305.562 139.437 310.406 139.191C318.398 138.798 324.865 141.281 330.274 146.838C333.495 150.133 335.192 152.985 336.274 156.993C336.569 158.075 336.913 159.305 337.036 159.723C337.454 161.149 337.552 164.321 337.282 167.862C336.839 173.394 337.184 173.665 341.634 171.55C345.224 169.829 347.781 169.189 351.765 169.017C355.576 168.845 358.674 169.263 362.461 170.517C367.649 172.214 370.919 174.279 374.583 178.14C380.411 184.287 383.238 191.541 383.656 201.425L383.804 204.819L348.421 204.868L313.037 204.941L310.874 205.63C307.529 206.663 304.431 208.359 300.251 211.458C298.407 212.785 294.596 216.621 293.612 218.096L292.875 219.178L287.957 219.891C284.49 220.383 281.613 220.629 278.244 220.703C273.277 220.85 273.744 220.875 262.901 219.449C261.573 219.277 260.417 219.031 260.319 218.908C260.221 218.81 259.68 218.072 259.09 217.31C255.573 212.613 248.369 207.425 242.713 205.532C240.992 204.941 240.992 204.941 205.117 204.868L169.242 204.819L169.39 200.934C169.636 195.032 170.644 191.049 173.152 186.033C175.34 181.681 177.824 178.459 181.02 175.804C186.774 171.009 192.11 169.14 200.175 169.091C205.412 169.042 207.404 169.484 211.584 171.648C214.461 173.148 214.879 173.222 215.666 172.361C216.108 171.87 216.108 171.722 215.666 167.911C215.174 163.583 215.272 161.96 216.281 158.002C218.149 150.699 224.469 143.593 231.599 140.789C234.722 139.56 237.624 139.117 241.607 139.24C246.992 139.388 250.188 140.421 254.86 143.42C257.762 145.289 258.426 145.412 259.557 144.379C260.147 143.863 260.417 143.273 260.786 141.798C262.04 136.806 265.04 133.732 270.376 131.937C271.409 131.593 272.958 131.2 273.818 131.077C275.933 130.757 280.211 130.929 282.055 131.446ZM163.292 218.539C163.759 218.785 163.685 218.908 162.21 220.408L160.612 222.006L159.185 220.482C158.399 219.646 157.759 218.933 157.759 218.908C157.759 218.883 158.399 218.269 159.161 217.531L160.587 216.179L161.693 217.211C162.308 217.777 163.021 218.367 163.292 218.539ZM395.729 218.81C395.754 218.883 395.139 219.67 394.352 220.531L392.926 222.104L391.476 220.58C390.664 219.719 390 218.957 390 218.859C390 218.76 390.639 218.121 391.426 217.408L392.852 216.105L394.254 217.383C395.016 218.072 395.68 218.711 395.729 218.81ZM191.692 218.883C191.692 219.006 190.782 219.523 189.651 220.064C186.307 221.637 181.315 225.547 179.324 228.129C178.881 228.694 178.881 228.694 177.996 227.932C176.889 226.948 176.471 226.801 174.307 226.58C172.586 226.407 172.537 226.383 172.808 225.891C173.471 224.637 175.807 222.006 177.307 220.801C180.209 218.49 179.987 218.564 186.233 218.637C189.233 218.662 191.692 218.785 191.692 218.883ZM291.178 305.239C291.448 305.436 292.334 305.78 293.12 306.001C294.743 306.469 295.26 306.69 298.53 308.239C300.571 309.222 303.817 311.558 303.817 312.05C303.817 312.173 304.038 312.493 304.308 312.763C304.948 313.403 306.03 315.984 306.349 317.681C306.497 318.419 306.62 320.533 306.62 322.353C306.62 325.205 306.521 326.017 305.956 328.131C304.849 332.262 303.497 334.598 299.686 339.049C298.973 339.885 298.973 339.885 296.292 339.737C293.047 339.565 291.301 339.147 288.621 337.819C285.227 336.172 283.211 333.811 281.908 330C281.49 328.844 281.441 327.885 281.441 322.255C281.441 314.902 281.269 315.542 284.121 311.804C285.572 309.886 290.194 304.895 290.514 304.895C290.612 304.895 290.907 305.042 291.178 305.239ZM184.118 304.87C182.496 305.436 179.766 307.28 178.488 308.657C173.963 313.575 172.291 320.878 174.627 325.574C175.365 327.074 176.619 328.131 178.242 328.648C179.447 329.016 179.643 329.016 180.922 328.648C183.209 327.984 184.561 326.041 184.561 323.386C184.561 321.738 185.077 319.574 185.815 318.099C186.11 317.533 187.315 316.132 188.495 314.976C191.175 312.37 191.643 311.681 191.839 310.034C191.962 308.952 191.888 308.485 191.446 307.526C190.143 304.772 187.364 303.764 184.118 304.87ZM188.987 339.54C185.397 340.942 182.348 344.606 181.242 348.86C180.701 350.95 180.43 355.031 180.651 357.441C181.094 361.842 183.577 364.891 186.774 364.891C188.594 364.891 190.29 363.883 191.151 362.31C191.495 361.695 191.569 360.785 191.569 357.269C191.569 353.236 191.618 352.868 192.159 351.638C192.503 350.9 193.487 349.425 194.347 348.319C196.142 346.081 196.609 345.147 196.609 343.868C196.609 342.171 195.134 340.204 193.241 339.393C192.159 338.95 190.315 338.999 188.987 339.54ZM197.421 373.719C195.896 374.432 194.544 375.907 194.151 377.309C193.659 379.104 193.634 404.332 194.126 406.053C194.864 408.586 197.519 410.405 199.88 410.036C201.798 409.717 203.888 408.143 204.502 406.52C204.625 406.176 204.724 399.832 204.724 391.521C204.724 377.137 204.724 377.137 204.109 375.981C202.806 373.596 199.88 372.612 197.421 373.719ZM224.985 391.792C224.051 392.21 223.067 393.169 222.501 394.226C222.083 394.939 222.059 396.218 221.985 409.274C221.936 417.979 222.01 424.15 222.157 425.134C222.477 427.175 223.387 428.503 224.985 429.289C226.46 430.027 227.886 430.052 229.214 429.363C230.394 428.749 231.944 427.126 232.189 426.191C232.312 425.798 232.386 418.741 232.386 410.504C232.386 395.505 232.386 395.505 231.796 394.398C231.034 392.947 230.616 392.48 229.509 391.915C228.427 391.349 226.116 391.3 224.985 391.792ZM174.455 394.226C173.865 394.546 173.053 395.259 172.66 395.824C171.972 396.783 171.947 397.004 171.726 400.693C171.603 402.807 171.529 411.241 171.578 419.454L171.652 434.355L172.414 435.707C173.029 436.764 173.447 437.207 174.48 437.723C177.234 439.174 180.16 438.215 181.684 435.338C182.225 434.355 182.225 434.256 182.299 416.528C182.348 403.57 182.299 398.431 182.078 397.668C181.733 396.39 180.381 394.791 179.127 394.152C177.799 393.464 175.832 393.488 174.455 394.226ZM275.195 411.241C273.794 411.733 273.056 412.372 272.417 413.577C271.827 414.659 271.827 414.659 271.9 425.036L271.974 435.412L272.712 436.469C273.13 437.035 273.892 437.723 274.433 438.018C276.523 439.1 279.621 438.314 280.9 436.371C281.564 435.363 281.564 435.363 281.539 425.159C281.539 419.528 281.465 414.635 281.367 414.266C280.801 412.028 277.482 410.405 275.195 411.241ZM242.468 421.913C240.599 422.38 239.369 423.437 238.779 425.109C238.46 426.019 238.41 428.183 238.41 439.641C238.41 453.091 238.41 453.091 238.976 454.124C240.5 457.05 244.435 457.763 246.918 455.55C247.41 455.157 248 454.395 248.271 453.878C248.713 452.993 248.738 452.305 248.738 439.223V425.503L248.025 424.445C247.164 423.142 245.935 422.282 244.508 421.937C243.943 421.814 243.402 421.716 243.328 421.716C243.254 421.741 242.886 421.814 242.468 421.913ZM307.505 422.601C306.521 423.118 305.956 423.634 305.415 424.519L304.677 425.7V439.494C304.677 452.01 304.726 453.362 305.095 454.05C305.661 455.108 307.038 456.239 308.12 456.608C310.283 457.321 313.234 456.19 314.316 454.247C314.857 453.264 314.857 453.214 314.906 439.469C314.931 425.65 314.931 425.65 314.365 424.618C313.505 423.069 312.029 422.11 310.283 421.987C309.079 421.913 308.661 422.011 307.505 422.601ZM207.699 430.839C206.248 431.601 205.166 433.15 204.945 434.797C204.675 436.666 204.675 462.878 204.945 464.525C205.265 466.443 206.175 467.746 207.674 468.386C210.379 469.541 213.01 468.656 214.387 466.074C214.928 465.115 214.928 464.894 215.002 450.337C215.051 442.223 215.002 435.117 214.928 434.576C214.608 432.265 212.715 430.593 210.182 430.371C209.027 430.273 208.584 430.371 207.699 430.839ZM175.635 454.468C174.332 454.886 173.029 456.017 172.488 457.198C172.119 458.009 172.021 458.796 172.021 461.279C172.021 464.845 172.242 465.878 173.299 467.082C174.504 468.459 175.758 468.976 177.578 468.853C179.471 468.73 180.946 467.795 181.782 466.173C182.274 465.189 182.323 464.722 182.348 461.452C182.348 458.304 182.274 457.69 181.856 456.853C181.291 455.722 180.258 454.96 178.733 454.493C177.406 454.1 176.889 454.075 175.635 454.468ZM275.171 454.37C273.99 454.665 273.351 455.083 272.589 456.165C271.851 457.173 271.851 457.173 271.851 461.501C271.851 466.419 271.974 466.861 273.818 468.066C276.253 469.664 279.818 468.828 281.121 466.345C281.662 465.361 281.883 459.017 281.465 457.542C280.728 455.083 277.998 453.706 275.171 454.37Z" fill="#93D5CC"/>
<path d="M243.8 213.13H176.268L162.762 235.319L164.691 257.991C169.515 265.869 179.838 282.013 182.539 283.557C185.24 285.1 200.065 292.239 207.14 295.616C213.411 294.008 227.11 290.117 231.741 287.415C236.372 284.714 244.926 274.713 248.624 270.05L256.825 243.519L274.672 235.319L292.038 239.66L302.168 265.709C309.082 273.909 328.119 291.371 348.958 295.616C382.145 284.811 390.764 260.885 390.925 250.273V230.495L378.383 213.13H310.368L292.038 230.495H262.613L243.8 213.13Z" fill="#5ECAC5" stroke="black" stroke-width="0.245888"/>
<path d="M172.935 227.788C172.604 229.031 171.629 230.059 171.21 231.295C170.819 232.454 170.487 233.709 170.468 234.939C170.448 236.184 170.436 237.441 170.468 238.686C170.555 242.076 171.29 245.372 171.29 248.784C171.29 250.523 171.405 252.183 171.496 253.902C171.575 255.401 172.579 256.924 173.141 258.266C174.225 260.855 175.012 263.516 176.271 266.033C177.275 268.042 179.301 270.103 181.114 271.379C182.354 272.252 183.725 273.3 185.067 274.007C187.623 275.352 189.567 277.685 192.309 278.782C195.039 279.874 197.849 280.306 200.694 280.998C202.125 281.346 203.513 281.657 204.806 282.231C205.022 282.327 205.276 282.381 205.503 282.471C206.1 282.71 204.216 282.483 203.572 282.483C200.812 282.483 198.243 282.343 195.553 281.706C195.141 281.608 194.501 281.455 194.114 281.455C191.029 281.455 200.019 283.286 203.047 283.876C206.177 284.487 209.356 285.203 212.528 285.556C212.991 285.607 213.797 285.914 214.264 285.727C214.7 285.553 215.874 285.586 215.909 284.95C215.958 284.08 215.433 283.879 214.63 283.762C211.746 283.343 208.763 283.464 205.857 283.511C203.216 283.553 210.893 285.207 213.51 285.567C215.383 285.825 216.982 286.089 218.834 285.727C221.378 285.229 224.778 285.461 224.956 282.071C224.968 281.853 225.263 281.579 225.139 281.363C224.926 280.99 223.105 281.275 222.809 281.295C221.209 281.399 219.605 281.483 218.011 281.66C217.607 281.705 217.183 281.735 216.892 282.026C216.644 282.273 216.869 282.442 217.189 282.471C218.949 282.631 220.833 282.23 222.58 282.071C225.38 281.817 229.016 282.04 231.536 280.632C233.007 279.81 233.944 276.74 234.004 275.126C234.019 274.712 234.769 273.829 234.369 273.938C233.554 274.16 232.627 275.296 231.947 275.789C231.263 276.284 230.433 276.985 229.64 277.297C228.103 277.9 229.235 277.395 230.142 276.771C231.081 276.126 232.184 275.72 233.055 274.978C233.592 274.521 234.057 274.022 234.62 273.595C236.649 272.06 238.502 270.216 239.966 268.135C241.353 266.165 241.708 263.886 242.434 261.624C242.964 259.97 243.31 258.547 244.284 257.032C245.029 255.874 245.958 254.688 246.592 253.491C248.123 250.599 248.047 247.73 248.854 244.603C249.224 243.167 249.219 241.242 249.219 239.76C249.219 238.119 249.278 236.465 249.219 234.825C249.109 231.737 247.239 228.762 245.929 226.144" stroke="#FDC555" stroke-width="8.36018" stroke-linecap="round"/>
<path d="M307.04 226.484C304.629 228.895 304.156 233.461 304.156 236.688C304.156 242.926 303.457 249.34 306.498 254.989C307.408 256.678 308.305 258.14 308.605 260.09C308.827 261.532 309.618 263.073 310.367 264.305C312.175 267.275 314.372 270.195 316.85 272.673C318.203 274.026 319.487 275.107 321.015 276.222C322.016 276.952 323.034 277.454 324.108 278.058C325.028 278.575 326.066 278.613 327.004 279.056C329.707 280.333 332.335 281.431 335.101 282.495C337.965 283.596 341.17 283.785 343.986 284.589C345.795 285.106 351.511 284.602 349.63 284.602" stroke="#FDC555" stroke-width="10.8191" stroke-linecap="round"/>
<path d="M185.751 75.8955C182.702 76.9774 179.948 78.674 175.424 82.2885C166.719 89.2472 158.949 99.5744 154.572 109.951C150.171 120.45 148.179 130.31 147.958 142.875C147.761 153.448 148.401 159.276 150.958 169.579C150.982 169.702 151.056 169.997 151.13 170.193C151.204 170.39 151.4 171.054 151.573 171.669C151.745 172.283 151.966 173.021 152.089 173.341C152.212 173.66 152.31 174.128 152.31 174.398C152.31 174.644 152.409 175.062 152.556 175.308C152.679 175.529 153.073 176.66 153.441 177.816C153.786 178.972 154.745 181.726 155.556 183.963C158.064 190.873 157.892 189.766 157.154 193.823C156.417 197.954 155.999 201.446 155.999 203.732C155.999 205.109 155.925 205.355 155.581 205.355C155.335 205.355 152.089 205.38 148.376 205.429C141.934 205.478 141.565 205.503 140.606 206.019C137.213 207.814 136.451 211.847 138.811 215.314C139.549 216.396 139.549 216.42 142.794 220.084C144.048 221.486 146.36 224.313 147.983 226.354C151.032 230.264 153.318 232.993 154.056 233.657C154.449 234.001 154.499 234.764 154.597 241.034L154.695 248.041L153.195 248.853C149.138 251.066 145.917 254.287 143.139 258.885C139.082 265.672 138.024 272.138 139.549 280.892C139.696 281.826 139.918 282.564 140.065 282.564C140.188 282.564 140.237 282.662 140.163 282.785C139.942 283.13 141.368 286.793 141.614 286.572C141.713 286.474 141.737 286.498 141.639 286.67C141.442 287.039 142.549 289.277 144.319 292.006C145.057 293.162 145.671 294.268 145.671 294.44C145.671 294.613 145.106 295.276 144.442 295.94C140.655 299.629 138.418 304.546 137.532 311.087C137.114 314.259 137.385 319.521 138.147 322.545C138.86 325.398 140.139 328.791 140.631 329.184C140.827 329.332 140.926 329.504 140.852 329.602C140.68 329.775 143.704 334.323 144.786 335.528C145.278 336.045 145.671 336.512 145.671 336.586C145.671 336.635 145.229 337.151 144.712 337.717C143.04 339.512 142.549 340.176 141.737 341.823C139.991 345.29 140.065 344.675 139.991 358.47L139.918 370.961L140.95 373.075C141.59 374.428 142.45 375.731 143.311 376.616C144.663 378.042 144.737 378.313 143.926 378.878C143.311 379.321 141.86 381.362 141.147 382.788C140.016 385.075 139.795 387.066 139.795 394.713C139.795 398.549 139.893 402.311 140.016 403.074C140.114 403.836 140.655 405.385 141.196 406.516C142.401 409 144.565 411.385 146.286 412.049C146.901 412.27 147.393 412.59 147.393 412.762C147.393 412.909 146.852 413.303 146.163 413.598C144.368 414.409 142.671 416.057 141.663 417.999C140.065 421.023 139.991 421.761 140.065 432.998C140.139 443.006 140.139 443.006 140.827 444.457C141.713 446.375 142.991 447.899 144.344 448.686C145.966 449.645 148.327 449.645 149.925 448.71C151.179 447.973 152.064 446.94 152.728 445.44C153.122 444.53 153.146 441.58 153.171 395.918C153.171 347.356 153.171 347.356 153.736 345.659C154.425 343.692 155.212 342.339 156.466 341.012C157.72 339.684 160.056 338.036 162.023 337.127C163.67 336.34 163.67 336.34 163.547 335.381C163.4 334.25 163.006 333.905 161.285 333.364C158.113 332.381 154.277 328.816 152.114 324.857C150.638 322.152 149.532 317.062 149.728 313.89C149.925 310.743 150.958 307.202 152.458 304.473C154.572 300.637 157.105 298.276 161.556 295.965C163.892 294.736 164.113 294.539 163.965 293.801C163.793 292.818 163.154 292.252 161.088 291.219C158.531 289.941 155.999 287.679 154.302 285.146C152.212 282.023 151.302 278.974 151.302 275.187C151.302 271.253 152.187 268.426 154.523 264.959C156.122 262.573 157.867 260.557 158.039 260.852C158.113 260.951 158.679 262.475 159.318 264.245C160.523 267.614 163.301 273.245 165.244 276.245C169.498 282.835 176.629 289.326 184.645 293.949C193.251 298.891 204.217 301.079 215.307 300.096C221.7 299.53 227.183 298.006 233.675 295.006C235.519 294.145 237.191 293.383 237.412 293.309C237.707 293.211 237.855 292.695 237.978 291.219C238.592 283.597 244.1 276.294 251.944 272.63C254.526 271.425 257.255 270.516 258.312 270.516C259.886 270.516 260.55 268.499 259.394 267.122C258.78 266.409 258.78 266.409 259.419 264.59C260.943 260.115 263.402 251.238 264.042 247.869C264.312 246.542 264.583 245.927 265.296 245.042C267.115 242.829 270.287 241.083 273.951 240.271C275.918 239.853 276.262 239.829 278.082 240.148C280.393 240.566 281.696 240.984 283.811 242.042C285.803 243.05 288.458 245.238 288.876 246.246C289.048 246.689 289.565 248.459 290.007 250.23C291.114 254.631 292.761 260.778 293.696 263.926C294.384 266.286 294.433 266.606 294.114 266.95C293.548 267.491 293.351 268.721 293.696 269.557C293.966 270.196 295.048 270.761 296.056 270.761C296.204 270.761 297.187 271.032 298.22 271.352C301.933 272.532 306.162 275.31 309.211 278.532C312.555 282.097 314.621 286.67 315.014 291.367L315.162 293.162L318.039 294.613C328.071 299.629 337.439 301.227 349.635 299.998C354.799 299.481 361.782 297.465 366.601 295.104C369.601 293.629 374.126 290.678 377.42 288.047C381.084 285.097 384.895 280.966 387.92 276.663C390.182 273.417 393.747 266.336 395.075 262.401C395.272 261.811 395.542 261.27 395.641 261.246C396.256 261.049 398.616 264.196 399.993 267.073C401.665 270.54 402.157 275.802 401.149 279.761C399.87 284.851 396.772 288.81 392.297 291.023C389.371 292.473 389.1 292.719 389.1 293.9C389.1 294.908 389.174 294.981 390.821 295.719C393.551 296.924 395.223 298.03 396.993 299.776C403.804 306.464 405.255 316.202 400.804 325.127C399.624 327.463 398.173 329.332 396.28 330.906C394.633 332.258 391.485 333.955 390.625 333.955C389.518 333.955 388.928 335.725 389.789 336.463C390.01 336.684 391.067 337.25 392.125 337.717C395.026 339.045 397.411 341.159 398.518 343.372C399.993 346.274 399.944 343.692 399.845 396.459C399.772 435.949 399.796 444.875 400.067 445.538C400.239 445.981 400.977 446.915 401.69 447.653C402.747 448.686 403.263 449.03 404.296 449.276C407.665 450.063 411.033 447.997 412.435 444.26C412.927 442.932 412.951 442.44 412.951 432.482C412.951 421.097 412.902 420.753 411.451 417.876C410.492 416.007 408.747 414.311 406.927 413.475C406.189 413.13 405.575 412.811 405.575 412.786C405.575 412.737 406.312 412.344 407.198 411.901C409.73 410.598 411.869 407.991 412.976 404.795C413.394 403.59 413.443 402.68 413.443 395.205C413.443 386.206 413.345 385.296 412.017 382.665C411.648 381.927 410.665 380.6 409.829 379.739L408.329 378.141L409.976 376.518C411.181 375.338 411.919 374.329 412.607 372.928L413.566 370.985V358.814C413.566 347.675 413.517 346.495 413.123 345.143C412.386 342.757 410.837 340.077 409.165 338.233L407.616 336.536L408.673 335.356C411.476 332.233 413.32 328.447 414.845 322.693C415.681 319.546 415.73 319.078 415.754 315.513C415.779 311.259 415.533 309.513 414.402 305.997C412.951 301.448 411.427 298.817 408.624 295.94L407.296 294.588L408.501 292.818C411.132 288.883 412.656 285.318 413.615 280.794C414.427 276.958 414.525 272.04 413.836 268.794C412.091 260.557 407.493 253.721 400.706 249.271C398.641 247.943 398.198 247.525 398.346 247.205C398.468 246.984 398.591 243.935 398.616 240.444L398.665 234.1L399.845 232.796C400.509 232.083 402.132 230.116 403.485 228.444C406.14 225.125 410.763 219.691 413 217.207C415.509 214.453 416.295 212.043 415.558 209.486C415.238 208.454 414.894 207.863 414.132 207.2C412.287 205.527 412.14 205.503 404.222 205.355L397.092 205.232L396.919 202.036C396.723 198.47 396.403 196.012 395.69 192.618C395.223 190.332 395.223 190.332 395.936 188.561C397.018 185.979 399.772 178.013 400.78 174.669C402.772 167.882 404.124 161.784 404.591 157.284C404.739 155.932 404.911 154.383 404.96 153.842C405.034 153.301 405.157 149.858 405.23 146.219C405.353 140.957 405.304 138.769 404.985 135.646C403.853 124.581 400.755 113.443 396.698 105.845C391.239 95.5173 384.33 87.2555 376.142 81.1329C372.773 78.6494 370.216 77.1003 367.831 76.1168C366.331 75.502 365.815 75.4037 363.774 75.4283C361.93 75.4283 361.192 75.5512 360.258 75.9692C358.708 76.6577 356.741 78.551 356.102 79.928C355.438 81.3788 354.922 83.8868 354.922 85.5588C354.922 86.2965 354.823 88.1653 354.676 89.7389C354.553 91.3372 354.258 94.9272 354.061 97.7795C353.594 103.927 352.733 111.107 351.701 117.205C349.66 129.401 345.898 143.146 344.594 143.146C344.373 143.146 343.316 142.113 342.209 140.834C336.038 133.728 327.948 128.909 319.243 127.138C314.326 126.155 306.211 126.573 302.081 128.024C301.49 128.22 300.9 128.392 300.777 128.392C300.654 128.392 299.646 127.532 298.54 126.475C294.581 122.762 290.155 120.426 284.352 119.049C282.877 118.68 281.033 118.483 278.082 118.385C274.516 118.262 273.459 118.336 270.902 118.778C264.583 119.86 258.042 123.081 253.665 127.311L252.362 128.565L250.223 128.024C246.412 127.065 245.674 126.917 243.043 126.671C235.125 125.909 227.06 128.097 219.561 133.015C216.954 134.736 211.963 139.384 209.799 142.113C209.11 142.974 208.446 143.613 208.274 143.564C207.61 143.342 205.127 134.884 203.234 126.302C202.176 121.532 200.406 111.451 200.037 108.23C199.545 103.927 199.004 98.0499 198.881 95.9353C198.291 83.9606 198.045 82.0672 196.865 79.8788C194.824 76.0676 190.103 74.3955 185.751 75.8955ZM185.874 94.878C186.267 102.623 187.177 111.746 188.112 117.45C188.333 118.655 188.603 120.426 188.726 121.36C188.849 122.294 189.046 123.18 189.193 123.352C189.316 123.499 189.366 123.696 189.292 123.77C189.218 123.844 189.316 124.507 189.538 125.221C189.734 125.958 189.98 127.089 190.079 127.778C190.177 128.442 190.275 129.106 190.325 129.253C190.349 129.376 190.767 131.22 191.259 133.31C192.021 136.605 192.783 139.556 194.234 144.744C194.406 145.408 195.291 148.285 196.177 151.137C197.062 153.965 197.8 156.522 197.8 156.817C197.8 157.309 197.652 157.333 194.923 157.481C193.324 157.579 190.816 157.899 189.316 158.243C187.276 158.686 186.538 158.76 186.341 158.563C186.169 158.391 185.726 157.211 185.308 155.932C183.292 149.736 181.891 142.949 180.71 133.999C179.997 128.466 179.727 126.819 179.383 125.516C179.063 124.335 177.465 122.442 176.407 121.999C175.276 121.532 173.58 121.827 172.522 122.663C171.465 123.475 170.113 126.007 169.916 127.507C169.867 128.073 169.695 129.056 169.547 129.745C168.219 136.285 167.777 140.048 167.629 146.465C167.457 154.506 167.973 158.883 169.768 164.661C170.063 165.595 170.358 166.603 170.432 166.874C170.506 167.267 169.965 168.03 168.268 169.898C167.039 171.275 165.932 172.406 165.834 172.406C165.588 172.406 165.096 171.005 165.269 170.833C165.367 170.759 165.244 170.488 165.047 170.267C164.826 170.021 164.605 169.554 164.531 169.21C164.457 168.866 163.941 166.923 163.4 164.907C162.859 162.866 162.416 161.096 162.441 160.973C162.465 160.825 162.367 160.161 162.269 159.497C162.146 158.809 162.072 158.169 162.121 158.047C162.146 157.924 162.047 157.53 161.9 157.186C161.531 156.252 161.113 151.531 160.99 146.711C160.818 139.433 161.728 132.253 163.646 125.639C166.424 116.123 170.113 108.869 175.817 101.714C178.079 98.886 184.964 91.7552 185.431 91.7552C185.603 91.7552 185.751 92.8617 185.874 94.878ZM373.363 97.1647C383.002 106.853 389.764 120.229 391.412 132.892C392.493 141.252 392.518 148.26 391.51 155.686C390.625 161.956 388.141 172.062 387.33 172.554C387.059 172.726 385.191 170.906 383.592 168.915L382.658 167.759L383.396 165.472C385.412 159.202 386.027 154.481 385.83 147.178C385.707 142.556 385.092 136.703 384.33 132.573C384.133 131.564 383.863 130.04 383.715 129.204C383.273 126.745 382.51 124.606 381.699 123.499C380.765 122.196 379.117 121.385 377.765 121.581C376.535 121.754 374.79 123.008 374.15 124.237C373.486 125.442 372.896 128.81 372.478 133.556C372.281 136.04 370.634 144.892 369.577 149.293C368.716 152.834 367.093 158.612 366.872 158.809C366.823 158.883 365.962 158.71 364.954 158.44C362.397 157.727 360.577 157.432 357.774 157.284C356.422 157.211 355.266 157.112 355.192 157.038C355.143 156.965 355.807 154.629 356.717 151.801C363.257 131.343 366.749 113.221 367.364 96.673C367.437 94.1649 367.585 92.0257 367.634 91.9273C367.782 91.6814 369.355 93.1322 373.363 97.1647ZM281.549 131.343C285.163 132.278 288.704 134.417 290.155 136.556C290.548 137.146 290.917 137.662 290.991 137.736C291.384 138.105 292.491 141.031 292.614 142.064C292.811 143.515 293.229 144.252 294.188 144.744C295.073 145.211 295.761 144.965 297.507 143.662C302.4 139.949 309.777 138.203 315.949 139.31C321.727 140.343 327.087 143.244 331.021 147.424C333.013 149.563 333.8 150.768 335.226 153.768C337.39 158.366 338.029 162.669 337.488 168.595C337.218 171.349 337.242 171.792 337.587 172.308C337.783 172.628 338.177 172.898 338.423 172.898C338.693 172.898 340.144 172.283 341.693 171.546C345.381 169.775 347.594 169.21 351.627 169.038C355.291 168.89 357.922 169.185 361.069 170.095C366.724 171.767 370.019 173.611 373.658 177.177C376.511 179.955 378.576 182.783 380.15 186.053C382.658 191.266 383.641 195.372 383.863 201.593L384.01 205.355L348.504 205.405C312.998 205.478 312.998 205.478 311.178 206.044C305.203 207.888 299.13 212.166 294.31 217.92C292.737 219.789 292.737 219.789 291.065 219.961C288.63 220.207 284.18 220.822 282.705 221.117C280.492 221.559 272.599 221.412 268.861 220.846C267.042 220.576 264.386 220.182 262.96 219.986C261.534 219.789 260.378 219.617 260.353 219.617C260.329 219.617 259.788 218.928 259.124 218.068C255.632 213.593 250.936 209.806 245.969 207.47C241.395 205.306 245.207 205.503 204.93 205.355L169.154 205.232L169.178 201.175C169.203 197.536 169.277 196.823 169.94 194.167C170.85 190.504 171.858 187.996 173.629 184.824C177.489 177.865 183.071 173.021 189.882 170.71C193.669 169.407 195.759 169.111 200.504 169.111C204.266 169.111 205.053 169.185 206.774 169.677C208.717 170.243 211.077 171.275 213.364 172.579L214.544 173.242L215.184 172.579C215.848 171.915 215.848 171.915 215.553 169.898C214.938 165.546 214.913 163.628 215.503 160.653C216.143 157.309 216.585 155.957 217.913 153.35C220.913 147.35 226.814 142.236 232.839 140.367C235.863 139.433 237.781 139.138 240.953 139.187C246.608 139.236 250.026 140.293 255.116 143.638C257.501 145.211 257.894 145.334 259.026 144.744C259.911 144.277 260.132 143.908 260.501 142.039C261.189 138.572 263.943 134.933 267.066 133.335C268.935 132.4 271.812 131.417 273.582 131.122C276.016 130.728 279.459 130.827 281.549 131.343ZM394.608 217.576L396.231 219.125L394.534 220.895L392.838 222.666L391.141 220.846L389.444 219.027L390.871 217.822C391.682 217.158 392.395 216.469 392.469 216.273C392.641 215.781 392.739 215.83 394.608 217.576ZM162.047 217.33C162.711 217.994 163.474 218.633 163.719 218.756C164.113 218.978 163.965 219.199 162.392 220.797C161.433 221.756 160.548 222.567 160.474 222.567C160.375 222.543 159.908 222.051 159.441 221.436C158.974 220.822 158.285 220.109 157.892 219.838L157.228 219.346L158.753 217.773C159.613 216.912 160.425 216.199 160.548 216.199C160.695 216.174 161.359 216.691 162.047 217.33ZM241.051 219.789C243.092 220.871 245.01 222.518 246.436 224.362C248.084 226.526 250.026 230.559 250.715 233.19C251.231 235.255 251.28 235.993 251.256 241.009C251.231 249.886 250.149 255.246 246.83 262.721C243.805 269.581 236.478 278.04 230.134 281.999C224.626 285.466 217.593 287.334 210.217 287.334C200.013 287.334 191.579 284.212 183.808 277.499C180.366 274.548 177.145 270.639 174.145 265.795C170.285 259.574 168.072 251.263 168.047 243.099C168.047 233.583 171.121 226.01 176.973 221.092C180.12 218.437 176.383 218.682 210.02 218.805L239.477 218.928L241.051 219.789ZM373.806 219.469C379.756 222.494 384.428 229.846 385.387 237.69C386.199 244.304 385.018 253.181 382.486 259.5C380.986 263.262 379.265 266.434 376.634 270.27C375.921 271.278 372.552 275.015 371.372 276.073C365.126 281.703 359.004 284.9 351.184 286.67C348.332 287.31 347.84 287.334 342.627 287.31C336.652 287.285 334.366 286.965 330.013 285.613C323.645 283.597 317.448 278.63 311.252 270.54C308.105 266.409 306.531 263.655 304.834 259.205C303.433 255.516 302.671 252.099 302.056 246.886C301.613 243.197 301.589 242.239 301.81 239.189C302.203 233.903 302.4 232.821 303.654 229.575C305.179 225.567 308.719 221.461 312.088 219.814C313.613 219.051 313.932 219.002 316.809 218.879C318.506 218.805 331.759 218.781 346.267 218.83C372.675 218.879 372.675 218.879 373.806 219.469ZM186.243 230.485C184.669 231.567 183.981 232.698 183.858 234.419C183.759 235.698 183.808 236.19 184.227 237.001C184.866 238.231 186.292 239.46 187.472 239.78C187.964 239.927 192.046 240.026 196.718 240.026C205.004 240.026 205.102 240.026 206.184 239.46C206.848 239.116 207.586 238.427 208.078 237.714C208.742 236.706 208.864 236.313 208.864 235.132C208.864 233.682 208.201 231.887 207.438 231.174C206.061 229.895 206.479 229.944 196.423 229.944C187.103 229.944 187.054 229.944 186.243 230.485ZM174.809 250.795C174.661 250.943 175.743 255.516 176.456 257.606C177.342 260.311 179.21 264.049 180.833 266.458C182.481 268.893 186.735 273.294 189.169 275.04C191.628 276.81 195.98 279.023 198.783 279.958C205.201 282.072 213.758 282.121 219.806 280.081C231.412 276.146 239.674 267.712 243.51 255.934C244.076 254.213 244.592 252.32 244.666 251.754L244.813 250.722H209.848C190.62 250.722 174.858 250.746 174.809 250.795ZM319.76 230.215C317.768 231.001 316.317 233.755 316.834 235.698C317.252 237.272 318.039 238.476 319.096 239.214C320.079 239.903 320.079 239.903 328.587 240.124C338.669 240.37 340.906 240.222 342.431 239.14C345.381 237.05 345.234 232.477 342.136 230.362C341.595 229.993 340.513 229.944 330.948 229.969C324.579 229.969 320.129 230.067 319.76 230.215ZM308.449 250.968C308.449 251.705 309.752 256.426 310.392 258.074C313.76 266.508 319.022 272.901 326.005 277.007C331.562 280.277 335.497 281.482 341.521 281.753C349.906 282.097 358.782 279.22 365.298 273.983C367.683 272.065 371.322 268.303 372.601 266.409C375.871 261.516 379.707 251.435 378.453 250.968C377.814 250.722 308.449 250.722 308.449 250.968ZM252.682 289.572C250.567 290.31 249.411 290.998 248.084 292.326C246.485 293.924 245.871 295.399 245.871 297.563C245.871 299.776 246.485 301.227 248.206 303.071C250.592 305.653 252.559 306.292 257.452 306.12C260.23 305.997 260.796 305.923 261.657 305.407C262.591 304.866 262.714 304.866 263.378 305.186C265.419 306.243 271.394 313.251 272.303 315.636C272.623 316.447 272.623 325.078 272.303 327.734C271.984 330.512 271.713 331.397 270.631 333.192C268.271 337.102 264.656 339.266 258.755 340.249C255.608 340.766 250.69 340.618 248.034 339.905C243.141 338.577 238.641 334.987 236.576 330.758C235.888 329.307 235.789 328.889 235.666 326.185C235.543 323.431 235.494 323.136 234.83 322.201C233.896 320.849 232.494 320.185 230.601 320.185C226.691 320.21 224.355 323.332 224.355 328.545C224.355 334.127 226.568 339.02 231.191 343.741C235.002 347.601 239.355 350.134 244.887 351.708C246.731 352.249 247.297 352.273 254.108 352.273C262.025 352.273 262.493 352.224 266.869 350.773C269.697 349.814 271.443 349.003 274.418 347.208C275.525 346.544 276.557 346.003 276.705 346.003C276.877 346.003 278.328 346.741 279.951 347.626C283.221 349.396 284.229 349.864 287.18 350.97C290.598 352.224 292.466 352.47 298.982 352.495C306.875 352.495 309.137 352.077 314.547 349.544C321.309 346.397 326.153 341.135 328.513 334.323C329.079 332.701 329.202 331.815 329.3 329.307C329.423 325.988 329.227 324.955 328.169 323.259C327.309 321.857 325.833 320.75 324.235 320.283C322.981 319.914 322.76 319.914 321.579 320.283C318.801 321.168 318.039 322.349 317.768 326.381C317.547 329.725 317.326 330.512 316.17 332.479C314.621 335.11 311.793 337.446 308.449 338.774C305.08 340.151 303.457 340.421 298.859 340.446C293.819 340.446 291.753 340.028 288.557 338.381C285.114 336.586 283.098 334.373 281.721 330.881C281.057 329.184 281.057 329.111 281.008 322.767L280.983 316.374L282.041 314.628C282.631 313.669 283.664 312.194 284.352 311.333C286.098 309.145 290.13 304.94 290.499 304.94C290.647 304.94 291.114 305.186 291.532 305.456C292.171 305.923 292.688 305.997 295.687 306.096C301.49 306.292 304.171 305.26 306.433 301.94C307.49 300.366 307.785 299.235 307.662 297.096C307.465 293.9 305.867 291.736 302.351 290.014C300.482 289.08 300.482 289.08 296.032 289.08C291.778 289.08 291.557 289.105 290.253 289.719C288.286 290.629 285.754 292.793 281.155 297.416C278.918 299.653 277 301.497 276.877 301.497C276.754 301.497 274.762 299.629 272.451 297.367C267.435 292.449 264.951 290.408 263.034 289.695C261.878 289.252 260.968 289.129 258.042 289.031C254.698 288.933 254.354 288.982 252.682 289.572ZM184.03 305.481C180.096 306.981 176.284 311.112 174.883 315.415C174.047 317.923 173.604 321.586 173.948 322.89C174.071 323.431 174.317 324.316 174.44 324.832C174.784 326.16 176.678 328.225 177.833 328.545C180.391 329.234 182.382 328.545 183.538 326.504C184.153 325.422 184.276 324.98 184.276 323.48C184.276 321.734 184.743 319.914 185.628 318.193C185.874 317.751 187.202 316.177 188.603 314.726C190.005 313.3 191.185 311.849 191.259 311.53C191.652 309.636 191.652 309.145 191.21 308.112C189.956 305.235 187.276 304.251 184.03 305.481ZM365.249 305.161C363.257 305.8 362.102 306.956 361.536 308.8C360.946 310.841 362.2 313.005 365.446 315.513C367.118 316.816 368.519 318.636 369.036 320.16C369.134 320.505 369.306 321.931 369.405 323.308C369.552 325.57 369.65 325.939 370.29 326.848C371.322 328.299 372.159 328.84 373.56 328.988C375.798 329.184 378.06 327.586 379.166 324.955C379.781 323.554 379.904 319.718 379.412 317.677C378.355 313.103 374.568 308.186 370.56 306.169C368.495 305.112 366.503 304.743 365.249 305.161ZM189.144 340.077C187.349 340.79 186.366 341.479 184.817 343.175C182.21 346.028 181.104 349.249 180.907 354.757C180.784 357.855 180.809 358.371 181.3 359.822C182.112 362.256 183.046 363.584 184.497 364.322C186.636 365.379 188.628 365.059 190.128 363.363C191.136 362.207 191.259 361.666 191.087 358.765C190.841 354.068 191.529 351.536 193.841 348.782C194.652 347.847 195.537 346.642 195.808 346.101C196.791 344.282 196.349 342.536 194.505 340.913C192.906 339.512 191.283 339.241 189.144 340.077ZM359.717 340.2C358.241 340.864 357.258 341.971 356.889 343.298C356.446 344.97 357.209 346.839 359.225 348.954C361.512 351.388 361.635 351.781 361.807 357.339C361.93 362.133 361.93 362.158 362.618 363.043C364.684 365.748 368.814 365.477 370.782 362.527C372.036 360.633 372.38 359.109 372.38 355.396C372.38 352.421 372.306 351.683 371.691 349.544C370.29 344.577 367.585 341.257 363.921 340.028C362.274 339.463 361.167 339.512 359.717 340.2ZM249.067 361.961C247.739 362.773 247.346 363.412 247.37 364.666C247.395 367.666 251.329 372.879 255.829 375.928C260.821 379.272 264.509 380.624 271.615 381.657C276.41 382.37 284.918 381.583 290.007 379.936C295.417 378.214 300.974 374.354 304.023 370.223C306.531 366.83 307.146 364.297 305.843 362.896C304.392 361.347 303.064 361.347 300.359 362.969C295.958 365.625 291.901 367.051 285.09 368.354C277.664 369.756 270.484 369.166 262.148 366.486C258.853 365.428 255.559 364.002 254.132 362.994C251.993 361.494 250.346 361.15 249.067 361.961ZM197.431 374.231C196.078 374.895 194.652 376.37 194.357 377.452C194.16 378.042 194.111 383.034 194.16 392.5C194.234 406.639 194.234 406.639 194.923 407.672C195.291 408.237 196.054 409 196.619 409.368C197.455 409.934 197.898 410.057 199.127 410.057C201.045 410.032 202.398 409.344 203.578 407.795L204.438 406.664L204.389 391.714L204.316 376.788L203.553 375.829C202.496 374.551 201.488 374.01 199.816 373.887C198.758 373.788 198.168 373.887 197.431 374.231ZM351.725 374.182C350.619 374.674 349.832 375.411 349.242 376.567C348.775 377.452 348.775 378.067 348.824 392.058C348.898 406.614 348.898 406.614 349.586 407.672C350.594 409.221 352.242 410.18 353.84 410.18C355.512 410.18 356.151 409.909 357.479 408.68C359.446 406.885 359.372 407.426 359.299 391.738C359.225 376.247 359.299 376.936 357.454 375.141C356.102 373.838 353.545 373.395 351.725 374.182ZM226.445 391.837C226.322 391.91 225.904 392.009 225.536 392.082C224.724 392.279 223.224 393.533 222.757 394.443C222.216 395.476 222.192 425.671 222.708 426.9C223.298 428.228 224.503 429.31 225.88 429.728C227.577 430.22 229.076 429.802 230.576 428.4C232.027 427.072 231.978 427.785 231.978 410.991V395.55L231.24 394.271C230.724 393.386 230.183 392.82 229.544 392.476C228.609 392.009 226.937 391.664 226.445 391.837ZM324.555 392.033C323.35 392.451 322.292 393.386 321.752 394.517C321.235 395.574 321.235 395.845 321.235 410.696C321.235 425.351 321.26 425.818 321.752 426.9C322.366 428.277 322.833 428.794 323.94 429.359C326.374 430.589 329.374 429.507 330.702 426.9C331.317 425.695 331.317 425.695 331.317 410.991C331.317 400.984 331.218 395.968 331.046 395.304C330.333 392.771 327.112 391.148 324.555 392.033ZM175.743 394.197C174.366 394.517 172.891 395.722 172.448 396.877C172.301 397.246 172.153 405.115 172.104 416.032C172.03 432.162 172.055 434.719 172.375 435.482C173.948 439.244 179.112 439.44 181.251 435.826C181.866 434.744 181.866 434.744 181.841 416.253C181.792 397.762 181.792 397.762 181.177 396.73C180.44 395.476 179.333 394.591 178.006 394.222C176.924 393.927 176.85 393.927 175.743 394.197ZM375.626 394.197C374.396 394.492 373.019 395.5 372.208 396.754L371.47 397.861L371.347 415.614C371.2 434.621 371.2 434.965 372.404 436.416C373.56 437.867 374.519 438.334 376.289 438.334C378.281 438.334 379.904 437.498 380.937 435.924L381.601 434.892V397.443L380.863 396.361C379.658 394.664 377.47 393.755 375.626 394.197ZM274.566 412.024C273.656 412.491 273.115 412.983 272.672 413.721C272.058 414.778 272.058 414.778 272.058 424.909C272.058 436.023 272.058 435.973 273.558 437.4C275.303 439.022 278.033 438.973 279.926 437.277C280.688 436.588 281.008 436.121 281.106 435.383C281.205 434.842 281.229 429.851 281.155 424.318C281.033 414.237 281.033 414.237 280.467 413.426C279.778 412.467 278.352 411.704 276.926 411.508C276.09 411.409 275.598 411.508 274.566 412.024ZM241.863 422.597C240.584 423.163 239.625 423.925 239.207 424.712C238.641 425.794 238.641 453.284 239.182 454.341C240.068 456.038 241.543 456.898 243.535 456.898C245.157 456.898 246.657 456.038 247.666 454.587L248.452 453.407V439.785C248.452 424.613 248.502 425.154 246.756 423.654C245.182 422.302 243.412 421.933 241.863 422.597ZM307.834 422.868C306.851 423.409 305.769 424.417 305.351 425.204C305.08 425.745 305.007 428.449 305.007 439.809C304.982 455.522 304.859 454.563 306.9 456.013C308.744 457.317 311.277 457.144 313.023 455.595C314.744 454.095 314.67 454.907 314.498 439.342C314.35 425.499 314.35 425.327 313.809 424.564C312.924 423.236 311.768 422.622 310.072 422.548C309.039 422.499 308.351 422.597 307.834 422.868ZM208.127 431.105C207.34 431.425 205.988 432.728 205.52 433.564C205.25 434.105 205.176 437.031 205.176 449.842C205.152 464.89 205.152 465.505 205.619 466.414C205.889 466.931 206.307 467.545 206.578 467.767C207.709 468.799 210.02 469.242 211.422 468.701C212.454 468.308 213.979 466.759 214.397 465.677C214.741 464.767 214.766 462.874 214.717 449.399C214.643 432.801 214.692 433.49 213.241 432.138C212.012 430.982 209.651 430.515 208.127 431.105ZM342.013 431.228C340.931 431.793 339.996 432.752 339.431 433.908C338.964 434.892 338.939 435.432 338.939 449.842C338.939 461.816 339.013 464.939 339.259 465.578C340.119 467.57 342.062 468.947 344.054 468.947C345.48 468.947 347.496 468.013 348.406 466.931C349.02 466.193 349.02 466.193 349.02 450.555C349.02 435.801 348.971 434.842 348.553 433.883C348.307 433.318 347.84 432.629 347.521 432.31C346.094 430.957 343.513 430.441 342.013 431.228ZM176.014 454.956C174.834 455.177 173.555 456.087 172.989 457.046C172.522 457.833 172.473 458.3 172.473 461.841C172.473 465.775 172.473 465.775 173.211 466.857C174.243 468.357 175.743 469.045 177.637 468.898C179.407 468.775 180.661 467.914 181.497 466.218C182.014 465.185 182.038 464.939 181.891 461.226C181.743 457.341 181.743 457.317 181.005 456.48C180.612 456.013 180.046 455.522 179.776 455.399C179.087 455.005 176.899 454.759 176.014 454.956ZM275.254 454.907C274 455.3 273.066 455.915 272.574 456.726C272.107 457.489 272.058 457.931 272.058 461.693C272.058 465.652 272.082 465.873 272.672 466.882C273.926 469.021 277.172 469.611 279.41 468.136C281.033 467.054 281.18 466.562 281.18 461.841C281.18 457.464 281.057 456.825 279.975 455.841C278.918 454.882 276.754 454.464 275.254 454.907ZM374.494 455.054C373.978 455.226 373.167 455.743 372.724 456.185C371.322 457.538 371.15 458.202 371.15 461.865C371.15 464.841 371.2 465.283 371.716 466.267C372.06 466.931 372.749 467.668 373.462 468.136C374.47 468.824 374.863 468.947 376.093 468.947C378.478 468.947 379.953 468.136 380.765 466.365C381.133 465.554 381.232 464.742 381.232 461.964C381.232 458.767 381.183 458.497 380.592 457.39C379.511 455.399 376.609 454.292 374.494 455.054Z" fill="#051F34"/>
</g>
<defs>
<clipPath id="clip0_361_1370">
<rect width="499.152" height="503.578" fill="white" transform="translate(18.8232 28.0698)"/>
</clipPath>
</defs>
</svg>
